<?xml version="1.0" encoding="utf-8"?>
<!-- Generator: Adobe Illustrator 23.0.4, SVG Export Plug-In . SVG Version: 6.00 Build 0)  -->
<svg version="1.1" id="Layer_1" xmlns="http://www.w3.org/2000/svg" xmlns:xlink="http://www.w3.org/1999/xlink" x="0px" y="0px"
	 viewBox="0 0 48 48" style="enable-background:new 0 0 48 48;" xml:space="preserve">
<style type="text/css">
	.st0{fill:#FF4F1F;}
	.st1{fill:#FF4F1F;stroke:#000000;stroke-width:2;stroke-miterlimit:10;}
</style>
<g>
	<g>
		<rect x="23.1" y="5.9" class="st0" width="2" height="4.7"/>
	</g>
</g>
<g>
	<g>
		<path class="st0" d="M24.1,6.3c-1.7,0-3.1-1.4-3.1-3.1s1.4-3.1,3.1-3.1s3.1,1.4,3.1,3.1S25.8,6.3,24.1,6.3z M24.1,2.1
			c-0.6,0-1.1,0.5-1.1,1.1s0.5,1.1,1.1,1.1s1.1-0.5,1.1-1.1S24.7,2.1,24.1,2.1z"/>
	</g>
</g>
<g>
	<g>
		<path class="st1" d="M35.8,39.6"/>
	</g>
</g>
<g>
	<g>
		<path class="st0" d="M20.6,48h-1.9v-2h1.9c3.3,0,6.4-2.2,7.8-5.6c0.5-1.1,1.4-1.7,2.5-1.7H41c2.9,0,5.2-2.3,5.2-5.2V16.8
			c0-2.9-2.3-5.2-5.2-5.2H7.1c-2.9,0-5.2,2.3-5.2,5.2v16.6c0,2.9,2.3,5.2,5.2,5.2h11.6v2H7.1c-4,0-7.2-3.2-7.2-7.2V16.8
			c0-4,3.2-7.2,7.2-7.2H41c4,0,7.2,3.2,7.2,7.2v16.7c0,4-3.2,7.2-7.2,7.2H30.9c-0.4,0-0.6,0.3-0.7,0.5C28.6,45.3,24.7,48,20.6,48z"
			/>
	</g>
</g>
<g>
	<g>
		<g>
			<path class="st0" d="M17.4,23.8c-1.7,0-3.1-1.4-3.1-3.1s1.4-3.1,3.1-3.1s3.1,1.4,3.1,3.1S19.1,23.8,17.4,23.8z M17.4,19.6
				c-0.6,0-1.1,0.5-1.1,1.1s0.5,1.1,1.1,1.1s1.1-0.5,1.1-1.1S18,19.6,17.4,19.6z"/>
		</g>
	</g>
	<g>
		<g>
			<path class="st0" d="M31.1,23.8c-1.7,0-3.1-1.4-3.1-3.1s1.4-3.1,3.1-3.1c1.7,0,3.1,1.4,3.1,3.1S32.8,23.8,31.1,23.8z M31.1,19.6
				c-0.6,0-1.1,0.5-1.1,1.1s0.5,1.1,1.1,1.1s1.1-0.5,1.1-1.1S31.7,19.6,31.1,19.6z"/>
		</g>
	</g>
	<g>
		<g>
			<path class="st0" d="M24.2,33.2c-4,0-8-1-11.6-3.1l1-1.7c6.6,3.8,14.7,3.8,21.2,0l1,1.7C32.3,32.2,28.3,33.2,24.2,33.2z"/>
		</g>
	</g>
</g>
</svg>
